<?xml version="1.0" encoding="UTF-8" standalone="no"?>
<!DOCTYPE svg PUBLIC "-//W3C//DTD SVG 1.1//EN"
 "http://www.w3.org/Graphics/SVG/1.1/DTD/svg11.dtd">
<!-- Generated by graphviz version 2.40.1 (20161225.0304)
 -->
<!-- Title: Tree Pages: 1 -->
<svg width="515pt" height="373pt"
 viewBox="0.00 0.00 515.00 373.00" xmlns="http://www.w3.org/2000/svg" xmlns:xlink="http://www.w3.org/1999/xlink">
<g id="graph0" class="graph" transform="scale(1 1) rotate(0) translate(4 369)">
<title>Tree</title>
<polygon fill="#ffffff" stroke="transparent" points="-4,4 -4,-369 511,-369 511,4 -4,4"/>
<!-- 0 -->
<g id="node1" class="node">
<title>0</title>
<polygon fill="none" stroke="#000000" points="246,-365 119,-365 119,-297 246,-297 246,-365"/>
<text text-anchor="middle" x="182.5" y="-349.8" font-family="Times,serif" font-size="14.00" fill="#000000">Petal Width &lt;= 0.8</text>
<text text-anchor="middle" x="182.5" y="-334.8" font-family="Times,serif" font-size="14.00" fill="#000000">gini = 0.666</text>
<text text-anchor="middle" x="182.5" y="-319.8" font-family="Times,serif" font-size="14.00" fill="#000000">samples = 90</text>
<text text-anchor="middle" x="182.5" y="-304.8" font-family="Times,serif" font-size="14.00" fill="#000000">value = [29, 32, 29]</text>
</g>
<!-- 1 -->
<g id="node2" class="node">
<title>1</title>
<polygon fill="none" stroke="#000000" points="169,-253.5 56,-253.5 56,-200.5 169,-200.5 169,-253.5"/>
<text text-anchor="middle" x="112.5" y="-238.3" font-family="Times,serif" font-size="14.00" fill="#000000">gini = 0.0</text>
<text text-anchor="middle" x="112.5" y="-223.3" font-family="Times,serif" font-size="14.00" fill="#000000">samples = 29</text>
<text text-anchor="middle" x="112.5" y="-208.3" font-family="Times,serif" font-size="14.00" fill="#000000">value = [29, 0, 0]</text>
</g>
<!-- 0&#45;&gt;1 -->
<g id="edge1" class="edge">
<title>0&#45;&gt;1</title>
<path fill="none" stroke="#000000" d="M159.5794,-296.9465C152.0172,-285.7113 143.5976,-273.2021 135.9933,-261.9043"/>
<polygon fill="#000000" stroke="#000000" points="138.8523,-259.8837 130.3649,-253.5422 133.0452,-263.7924 138.8523,-259.8837"/>
<text text-anchor="middle" x="125.5705" y="-274.3781" font-family="Times,serif" font-size="14.00" fill="#000000">True</text>
</g>
<!-- 2 -->
<g id="node3" class="node">
<title>2</title>
<polygon fill="none" stroke="#000000" points="317.5,-261 187.5,-261 187.5,-193 317.5,-193 317.5,-261"/>
<text text-anchor="middle" x="252.5" y="-245.8" font-family="Times,serif" font-size="14.00" fill="#000000">Petal Width &lt;= 1.75</text>
<text text-anchor="middle" x="252.5" y="-230.8" font-family="Times,serif" font-size="14.00" fill="#000000">gini = 0.499</text>
<text text-anchor="middle" x="252.5" y="-215.8" font-family="Times,serif" font-size="14.00" fill="#000000">samples = 61</text>
<text text-anchor="middle" x="252.5" y="-200.8" font-family="Times,serif" font-size="14.00" fill="#000000">value = [0, 32, 29]</text>
</g>
<!-- 0&#45;&gt;2 -->
<g id="edge2" class="edge">
<title>0&#45;&gt;2</title>
<path fill="none" stroke="#000000" d="M205.4206,-296.9465C211.2826,-288.2373 217.6598,-278.7626 223.773,-269.6801"/>
<polygon fill="#000000" stroke="#000000" points="226.8476,-271.3802 229.5279,-261.13 221.0405,-267.4716 226.8476,-271.3802"/>
<text text-anchor="middle" x="234.3223" y="-281.966" font-family="Times,serif" font-size="14.00" fill="#000000">False</text>
</g>
<!-- 3 -->
<g id="node4" class="node">
<title>3</title>
<polygon fill="none" stroke="#000000" points="244,-157 109,-157 109,-89 244,-89 244,-157"/>
<text text-anchor="middle" x="176.5" y="-141.8" font-family="Times,serif" font-size="14.00" fill="#000000">Petal Length &lt;= 5.45</text>
<text text-anchor="middle" x="176.5" y="-126.8" font-family="Times,serif" font-size="14.00" fill="#000000">gini = 0.114</text>
<text text-anchor="middle" x="176.5" y="-111.8" font-family="Times,serif" font-size="14.00" fill="#000000">samples = 33</text>
<text text-anchor="middle" x="176.5" y="-96.8" font-family="Times,serif" font-size="14.00" fill="#000000">value = [0, 31, 2]</text>
</g>
<!-- 2&#45;&gt;3 -->
<g id="edge3" class="edge">
<title>2&#45;&gt;3</title>
<path fill="none" stroke="#000000" d="M227.6148,-192.9465C221.1847,-184.1475 214.1837,-174.5672 207.4841,-165.3993"/>
<polygon fill="#000000" stroke="#000000" points="210.1672,-163.1389 201.4412,-157.13 204.5155,-167.269 210.1672,-163.1389"/>
</g>
<!-- 6 -->
<g id="node7" class="node">
<title>6</title>
<polygon fill="none" stroke="#000000" points="397,-157 262,-157 262,-89 397,-89 397,-157"/>
<text text-anchor="middle" x="329.5" y="-141.8" font-family="Times,serif" font-size="14.00" fill="#000000">Petal Length &lt;= 4.85</text>
<text text-anchor="middle" x="329.5" y="-126.8" font-family="Times,serif" font-size="14.00" fill="#000000">gini = 0.069</text>
<text text-anchor="middle" x="329.5" y="-111.8" font-family="Times,serif" font-size="14.00" fill="#000000">samples = 28</text>
<text text-anchor="middle" x="329.5" y="-96.8" font-family="Times,serif" font-size="14.00" fill="#000000">value = [0, 1, 27]</text>
</g>
<!-- 2&#45;&gt;6 -->
<g id="edge6" class="edge">
<title>2&#45;&gt;6</title>
<path fill="none" stroke="#000000" d="M277.7127,-192.9465C284.2273,-184.1475 291.3205,-174.5672 298.1082,-165.3993"/>
<polygon fill="#000000" stroke="#000000" points="301.0931,-167.2496 304.2307,-157.13 295.4673,-163.0843 301.0931,-167.2496"/>
</g>
<!-- 4 -->
<g id="node5" class="node">
<title>4</title>
<polygon fill="none" stroke="#000000" points="113,-53 0,-53 0,0 113,0 113,-53"/>
<text text-anchor="middle" x="56.5" y="-37.8" font-family="Times,serif" font-size="14.00" fill="#000000">gini = 0.061</text>
<text text-anchor="middle" x="56.5" y="-22.8" font-family="Times,serif" font-size="14.00" fill="#000000">samples = 32</text>
<text text-anchor="middle" x="56.5" y="-7.8" font-family="Times,serif" font-size="14.00" fill="#000000">value = [0, 31, 1]</text>
</g>
<!-- 3&#45;&gt;4 -->
<g id="edge4" class="edge">
<title>3&#45;&gt;4</title>
<path fill="none" stroke="#000000" d="M134.1925,-88.9777C122.3501,-79.4545 109.4979,-69.1191 97.7195,-59.6473"/>
<polygon fill="#000000" stroke="#000000" points="99.7486,-56.7877 89.7624,-53.2485 95.3618,-62.2427 99.7486,-56.7877"/>
</g>
<!-- 5 -->
<g id="node6" class="node">
<title>5</title>
<polygon fill="none" stroke="#000000" points="237.5,-53 131.5,-53 131.5,0 237.5,0 237.5,-53"/>
<text text-anchor="middle" x="184.5" y="-37.8" font-family="Times,serif" font-size="14.00" fill="#000000">gini = 0.0</text>
<text text-anchor="middle" x="184.5" y="-22.8" font-family="Times,serif" font-size="14.00" fill="#000000">samples = 1</text>
<text text-anchor="middle" x="184.5" y="-7.8" font-family="Times,serif" font-size="14.00" fill="#000000">value = [0, 0, 1]</text>
</g>
<!-- 3&#45;&gt;5 -->
<g id="edge5" class="edge">
<title>3&#45;&gt;5</title>
<path fill="none" stroke="#000000" d="M179.3205,-88.9777C180.0113,-80.6449 180.7537,-71.6903 181.4545,-63.2364"/>
<polygon fill="#000000" stroke="#000000" points="184.9443,-63.5035 182.2825,-53.2485 177.9682,-62.9251 184.9443,-63.5035"/>
</g>
<!-- 7 -->
<g id="node8" class="node">
<title>7</title>
<polygon fill="none" stroke="#000000" points="375.5,-53 269.5,-53 269.5,0 375.5,0 375.5,-53"/>
<text text-anchor="middle" x="322.5" y="-37.8" font-family="Times,serif" font-size="14.00" fill="#000000">gini = 0.5</text>
<text text-anchor="middle" x="322.5" y="-22.8" font-family="Times,serif" font-size="14.00" fill="#000000">samples = 2</text>
<text text-anchor="middle" x="322.5" y="-7.8" font-family="Times,serif" font-size="14.00" fill="#000000">value = [0, 1, 1]</text>
</g>
<!-- 6&#45;&gt;7 -->
<g id="edge7" class="edge">
<title>6&#45;&gt;7</title>
<path fill="none" stroke="#000000" d="M327.0321,-88.9777C326.4276,-80.6449 325.778,-71.6903 325.1648,-63.2364"/>
<polygon fill="#000000" stroke="#000000" points="328.6547,-62.969 324.4403,-53.2485 321.6731,-63.4755 328.6547,-62.969"/>
</g>
<!-- 8 -->
<g id="node9" class="node">
<title>8</title>
<polygon fill="none" stroke="#000000" points="507,-53 394,-53 394,0 507,0 507,-53"/>
<text text-anchor="middle" x="450.5" y="-37.8" font-family="Times,serif" font-size="14.00" fill="#000000">gini = 0.0</text>
<text text-anchor="middle" x="450.5" y="-22.8" font-family="Times,serif" font-size="14.00" fill="#000000">samples = 26</text>
<text text-anchor="middle" x="450.5" y="-7.8" font-family="Times,serif" font-size="14.00" fill="#000000">value = [0, 0, 26]</text>
</g>
<!-- 6&#45;&gt;8 -->
<g id="edge8" class="edge">
<title>6&#45;&gt;8</title>
<path fill="none" stroke="#000000" d="M372.1601,-88.9777C384.1011,-79.4545 397.0605,-69.1191 408.937,-59.6473"/>
<polygon fill="#000000" stroke="#000000" points="411.3246,-62.22 416.9605,-53.2485 406.96,-56.7473 411.3246,-62.22"/>
</g>
</g>
</svg>
